<?xml version="1.0" encoding="UTF-8"?>
<svg width="25px" height="6px" version="1.1" viewBox="0 0 25 6" xmlns="http://www.w3.org/2000/svg" xmlns:xlink="http://www.w3.org/1999/xlink"><!-- Generator: Sketch 51.2 (57519) - http://www.bohemiancoding.com/sketch --><title>Page 1</title><desc>Created with Sketch.</desc><defs><polygon id="c" points="0 0.4815 4.8166 0.4815 4.8166 5.2499 0 5.2499"/><polygon id="b" points="0.68356 0.4815 5.5002 0.4815 5.5002 5.2499 0.68356 5.2499"/><polygon id="a" points="0.6103 0.4815 5.4262 0.4815 5.4262 5.2499 0.6103 5.2499"/></defs><g fill="none" fill-rule="evenodd"><g transform="translate(-856 -249)"><g transform="translate(-3 -4)"><g transform="translate(530 158)"><g transform="translate(329 95)"><mask id="f" fill="white"><use xlink:href="#c"/></mask><path d="m-7.5758e-5 2.8657c0-1.317 1.0788-2.3842 2.4083-2.3842 1.3303 0 2.4083 1.0672 2.4083 2.3842s-1.078 2.3842-2.4083 2.3842c-1.3295 0-2.4083-1.0672-2.4083-2.3842" fill="#8C8C8C" fill-opacity=".5" mask="url(#f)"/><g transform="translate(9)"><mask id="e" fill="white"><use xlink:href="#b"/></mask><path d="m0.68356 2.8657c0-1.317 1.0788-2.3842 2.4091-2.3842 1.3303 0 2.4076 1.0672 2.4076 2.3842s-1.0773 2.3842-2.4076 2.3842c-1.3303 0-2.4091-1.0672-2.4091-2.3842" fill="#8C8C8C" fill-opacity=".5" mask="url(#e)"/></g><g transform="translate(19)"><mask id="d" fill="white"><use xlink:href="#a"/></mask><path d="m0.6103 2.8657c0-1.317 1.078-2.3842 2.4083-2.3842s2.4076 1.0672 2.4076 2.3842-1.0773 2.3842-2.4076 2.3842-2.4083-1.0672-2.4083-2.3842" fill="#8C8C8C" fill-opacity=".5" mask="url(#d)"/></g></g></g></g></g></g></svg>
