<?xml version="1.0" encoding="UTF-8"?>
<svg viewBox="0 0 113.98 114.01" xmlns="http://www.w3.org/2000/svg"><defs><style>.cls-1{fill:#1f2676;}.cls-2{fill:#fff;}</style></defs><g data-name="图层 2"><g data-name="图层 1"><rect class="cls-1" width="113.98" height="114.01"/><path class="cls-2" d="M73.73,14.75H21.13a2.81,2.81,0,0,0-2.81,2.81v78.8a2.81,2.81,0,0,0,2.81,2.81l52.57.09a2.82,2.82,0,0,0,2.43-1.39L99.27,58.35a2.82,2.82,0,0,0,0-2.85L76.15,16.14A2.81,2.81,0,0,0,73.73,14.75ZM71.18,93.44l-36.37-.11a1.4,1.4,0,0,1-1.4-1.41V30.55a1.4,1.4,0,0,1,1.4-1.4H66.25a1.41,1.41,0,0,1,1.22.7l15,26.29a1.38,1.38,0,0,1,0,1.4L67.14,83.8a1.38,1.38,0,0,1-1.21.7H44.08a1.4,1.4,0,0,1-1.4-1.4V81.36h0V75.55h0V40.14a1.41,1.41,0,0,1,1.4-1.41H61a1.4,1.4,0,0,1,1.22.72l9.47,16.69a1.43,1.43,0,0,1,0,1.4L61.6,74.85a1.4,1.4,0,0,1-1.21.7H52.92a.7.7,0,0,1-.7-.7V72.68a.7.7,0,0,1,.7-.7h5.34a1.41,1.41,0,0,0,1.21-.69l8.3-14a1.43,1.43,0,0,0,0-1.44l-7.7-13a1.43,1.43,0,0,0-1.21-.68H47.68a1.4,1.4,0,0,0-1.41,1.4V80a1.41,1.41,0,0,0,1.41,1.4H63.74a1.38,1.38,0,0,0,1.21-.7l13.4-23.09a1.43,1.43,0,0,0,0-1.4L65.58,33.63a1.41,1.41,0,0,0-1.22-.71H38.27a1.4,1.4,0,0,0-1.4,1.41V88.91a1.4,1.4,0,0,0,1.4,1.4h31a1.39,1.39,0,0,0,1.21-.69L89.2,57.57a1.4,1.4,0,0,0,0-1.4L70.84,24a1.4,1.4,0,0,0-1.22-.71H29a1.4,1.4,0,0,0-1.4,1.41V92.6a.7.7,0,0,1-.71.7H24.84a.7.7,0,0,1-.7-.7V22a1.41,1.41,0,0,1,1.4-1.41H71.2a1.43,1.43,0,0,1,1.22.7l20.52,35a1.41,1.41,0,0,1,0,1.42L72.39,92.74A1.4,1.4,0,0,1,71.18,93.44Zm-19.09-28V48.76a.7.7,0,0,1,.7-.7h2.76a1.41,1.41,0,0,1,1.21.68L61,55.89a1.43,1.43,0,0,1,0,1.44l-4.85,8.15a1.42,1.42,0,0,1-1.21.69H52.79A.7.7,0,0,1,52.09,65.46Z"/></g></g></svg>
