<?xml version="1.0" standalone="no"?>
<!DOCTYPE svg PUBLIC "-//W3C//DTD SVG 20010904//EN"
 "http://www.w3.org/TR/2001/REC-SVG-20010904/DTD/svg10.dtd">
<svg version="1.0" xmlns="http://www.w3.org/2000/svg"
 width="540.419271pt" height="540.419271pt" viewBox="0 0 540.419271 540.419271"
 preserveAspectRatio="xMidYMid meet">
<metadata>Created by Svg.la</metadata>
<g transform="translate(-30.092856,535.837186) scale(0.100000,-0.100000)"
fill="#034ea2" stroke="none">
<path d="M2099 4986 c-175 -67 -319 -274 -436 -626 -25 -74 -47 -137 -49 -139
-1 -2 -47 9 -102 23 -353 93 -645 72 -799 -58 -89 -75 -117 -226 -68 -371 36
-110 59 -145 94 -145 34 0 66 32 58 57 -4 10 -18 50 -31 88 -30 81 -35 189
-12 234 26 49 82 89 159 113 126 39 353 26 587 -33 41 -11 78 -23 82 -27 4 -4
1 -34 -7 -67 -15 -66 -50 -294 -60 -395 l-6 -65 -57 -42 c-31 -22 -108 -85
-171 -140 -62 -54 -119 -102 -127 -107 -9 -7 -26 5 -61 42 -27 29 -54 52 -60
52 -20 0 -63 -42 -63 -62 0 -11 20 -43 44 -71 l45 -50 -42 -49 c-165 -190
-229 -276 -295 -398 -94 -174 -121 -338 -73 -448 46 -103 150 -173 299 -202
102 -20 372 -7 507 24 61 14 121 29 135 32 24 5 26 1 73 -138 111 -332 245
-531 412 -609 48 -23 74 -29 131 -29 83 0 144 26 220 93 57 50 134 152 134
177 0 16 -58 60 -78 60 -4 0 -20 -20 -35 -44 -63 -100 -169 -176 -244 -176
-81 0 -188 76 -264 187 -49 71 -125 239 -169 371 -22 68 -40 129 -40 137 0 7
10 17 23 21 54 16 254 97 343 139 53 25 103 45 111 45 7 0 39 -13 71 -29 69
-34 337 -141 355 -141 7 0 21 -6 31 -13 17 -12 17 -16 2 -67 -11 -38 -13 -57
-5 -66 15 -18 79 -38 89 -28 4 5 15 35 24 67 14 48 20 58 34 52 33 -13 232
-56 304 -65 109 -14 284 -12 363 5 86 18 186 66 218 104 l24 29 27 -62 c17
-40 63 -106 126 -182 l100 -119 0 -242 c0 -144 -4 -243 -9 -243 -12 0 -26 -39
-22 -60 5 -25 33 -50 56 -50 46 0 74 72 40 100 -13 10 -15 52 -15 255 l0 242
-42 54 c-24 30 -69 85 -100 122 -75 91 -134 203 -124 240 8 32 31 35 73 10 60
-34 125 17 90 70 -22 34 -50 38 -94 16 -20 -10 -40 -19 -43 -19 -3 0 -4 20 -2
45 3 27 9 45 16 45 7 0 21 9 32 21 16 18 19 37 19 123 0 85 -3 107 -22 142
l-22 42 66 166 67 167 55 -3 55 -3 37 -153 c32 -137 40 -157 70 -188 l34 -35
2 -140 c0 -77 3 -143 6 -145 2 -3 66 63 142 144 137 148 139 149 171 141 38
-11 75 1 103 33 19 22 25 23 113 16 51 -3 135 -7 186 -7 87 -1 97 -3 176 -42
69 -34 85 -47 89 -68 13 -64 109 -59 115 7 3 26 19 46 95 112 64 55 100 80
118 80 75 0 106 87 50 139 -28 27 -29 31 -36 153 l-8 126 30 16 c17 8 38 32
48 52 15 31 15 43 6 76 -13 43 -58 78 -102 78 -24 0 -29 10 -92 186 -61 171
-65 188 -52 208 8 11 15 37 15 57 0 48 -29 74 -81 73 -37 -1 -42 3 -163 137
l-124 138 5 60 c5 57 4 61 -25 90 -37 38 -98 42 -142 11 l-28 -20 -88 48 c-49
26 -106 56 -126 67 -22 11 -38 27 -38 37 0 26 -36 58 -65 58 -56 0 -90 -91
-47 -122 18 -13 18 -17 1 -143 -10 -71 -18 -131 -18 -133 -1 -2 -11 -2 -23 0
-19 3 -30 27 -81 191 -56 175 -59 189 -43 206 9 9 16 32 16 49 0 71 -87 99
-132 43 l-23 -28 -162 -6 -162 -6 -21 34 c-24 38 -76 61 -118 50 -34 -8 -82
-53 -82 -77 0 -25 -21 -31 -192 -57 l-146 -23 -21 21 c-49 49 -131 4 -131 -72
0 -17 -38 -48 -169 -139 -93 -65 -171 -118 -174 -118 -3 0 -10 14 -16 30 -11
33 -32 38 -75 19 -31 -15 -37 -30 -26 -68 8 -28 4 -34 -71 -108 -73 -71 -91
-83 -216 -140 -74 -35 -141 -63 -147 -63 -6 0 -72 26 -146 58 -74 33 -179 74
-232 93 -113 40 -109 15 -41 218 111 333 262 521 418 521 69 0 113 -24 187
-101 40 -41 75 -69 87 -69 29 0 54 41 45 75 -9 37 -123 148 -181 176 -59 29
-187 37 -244 15z m225 -55 c53 -26 156 -122 156 -146 0 -22 -5 -19 -59 38 -72
76 -140 111 -216 111 -207 -1 -390 -258 -509 -715 -87 -331 -116 -562 -123
-977 -4 -239 -8 -321 -17 -312 -16 16 -14 573 2 715 84 716 304 1219 572 1306
45 15 142 5 194 -20z m1826 -263 c-1 -7 -36 -51 -80 -97 l-78 -85 -96 72
c-115 87 -124 109 -43 115 140 9 297 7 297 -5z m-550 -38 c10 -18 -2 -39 -91
-158 -56 -75 -108 -143 -114 -150 -10 -11 -27 9 -84 98 -70 108 -72 112 -60
144 l12 34 135 21 c75 12 138 24 141 26 12 13 51 3 61 -15z m625 -22 c4 -13
31 -101 62 -197 54 -173 56 -190 20 -191 -13 0 -277 234 -274 243 1 4 34 44
72 87 74 85 108 101 120 58z m-298 -123 l35 -31 -58 -67 c-46 -54 -62 -66 -78
-61 -12 4 -21 7 -22 8 -3 5 -54 233 -54 242 0 5 5 15 11 21 12 12 63 -23 166
-112z m-232 89 c5 0 24 -57 42 -129 30 -123 31 -130 15 -157 -13 -22 -14 -34
-6 -57 9 -23 8 -33 -6 -52 l-18 -23 -38 33 c-46 41 -121 77 -194 93 -30 6 -57
13 -59 14 -3 3 19 35 142 201 60 82 70 91 90 84 12 -5 26 -8 32 -7z m977 -96
l119 -61 -3 -40 c-3 -39 -5 -41 -118 -113 l-114 -72 -33 29 c-19 16 -41 29
-50 29 -13 0 -14 7 -10 38 4 20 12 81 19 134 10 81 15 98 32 107 32 15 30 15
158 -51z m-1487 42 c7 0 45 -48 85 -107 l72 -108 -124 -8 c-68 -4 -143 -8
-168 -7 -25 0 -93 2 -152 3 -80 1 -104 5 -95 13 7 7 73 53 147 104 74 51 142
99 150 107 9 9 26 12 44 9 16 -3 34 -6 41 -6z m884 -147 c107 -93 201 -191
201 -209 0 -20 0 -20 -218 44 -93 27 -167 54 -172 63 -6 10 9 35 52 87 34 40
63 72 66 72 3 0 35 -26 71 -57z m-1354 -74 c23 -64 28 -102 15 -97 -11 3 -49
106 -50 131 0 21 25 -3 35 -34z m2114 -3 c7 -8 22 -17 35 -20 21 -5 26 -17 44
-113 l20 -108 -23 -23 -23 -23 -146 32 c-131 29 -146 35 -146 53 0 12 -3 31
-6 43 -5 19 9 32 107 97 63 42 117 76 120 76 4 0 12 -6 18 -14z m201 -84 c36
-42 93 -107 128 -144 34 -37 62 -73 62 -79 0 -9 -24 -10 -91 -5 -88 7 -92 8
-127 44 -32 33 -38 49 -57 142 -22 103 -20 120 10 120 6 0 39 -35 75 -78z
m-2082 52 c-3 -3 -35 -12 -69 -20 -35 -8 -72 -17 -81 -20 -12 -3 -18 0 -18 10
0 14 11 17 115 29 55 7 58 7 53 1z m-1668 -18 c95 -13 301 -59 323 -73 5 -3 5
-9 0 -13 -4 -5 -53 2 -108 15 -258 61 -477 70 -619 25 -168 -53 -226 -202
-156 -396 31 -85 33 -94 22 -94 -5 0 -19 22 -31 50 -93 216 -50 367 129 449
109 50 249 62 440 37z m2215 -10 c111 -29 190 -87 222 -163 15 -38 17 -168 2
-233 -15 -70 -100 -236 -174 -340 -95 -133 -236 -293 -248 -281 -6 6 20 43 73
104 214 246 340 482 340 637 0 77 -18 121 -70 172 -37 36 -64 52 -117 68 -376
117 -1142 -126 -1805 -572 -73 -48 -88 -55 -88 -39 0 44 429 293 767 444 212
96 556 195 748 217 100 11 284 4 350 -14z m-825 -36 c0 -14 -26 -28 -90 -47
-8 -3 5 15 30 39 43 42 59 44 60 8z m1407 -42 c156 -46 174 -53 171 -71 -3
-18 -29 -28 -178 -68 -96 -27 -178 -45 -181 -41 -4 4 -16 50 -27 102 -19 87
-19 96 -5 112 9 10 23 18 31 18 9 0 94 -23 189 -52z m-913 -69 c-84 -84 -93
-90 -114 -79 -21 11 -72 10 -115 -4 -15 -5 -32 5 -67 40 -27 25 -48 49 -48 54
0 17 293 77 385 79 l50 1 -91 -91z m249 -28 l28 -119 -25 -25 c-29 -29 -42
-86 -27 -115 10 -19 3 -27 -59 -80 -63 -53 -73 -58 -111 -56 -42 2 -43 2 -89
86 -45 81 -46 86 -32 113 9 19 12 43 8 71 l-5 42 105 101 c95 91 109 101 143
101 l37 0 27 -119z m128 85 c42 -17 99 -63 99 -78 0 -6 -21 -39 -47 -74 -34
-46 -52 -63 -63 -58 -8 3 -23 9 -32 11 -10 3 -22 21 -27 42 -52 199 -52 191
-3 180 20 -4 54 -15 73 -23z m283 -91 c10 -53 17 -98 15 -100 -2 -2 -16 -6
-32 -10 -26 -7 -27 -6 -27 31 0 21 -7 63 -16 95 -15 53 -15 58 2 84 15 23 19
25 29 12 6 -9 19 -59 29 -112z m-1958 35 c197 -74 292 -119 274 -130 -14 -9
-20 -7 -130 43 -30 13 -98 40 -150 60 -52 20 -108 40 -123 46 -16 6 -25 15
-22 21 9 14 1 16 151 -40z m908 -17 c21 -70 79 -452 70 -462 -10 -12 -24 17
-29 67 -7 59 -49 322 -61 380 -7 34 10 47 20 15z m-975 -34 c87 -32 249 -97
264 -106 5 -3 -44 -35 -110 -72 -65 -37 -161 -94 -213 -128 -52 -33 -96 -59
-98 -58 -9 9 55 395 66 395 3 0 44 -14 91 -31z m925 -56 c9 -49 16 -95 16
-104 0 -12 -24 -21 -97 -37 -54 -12 -103 -22 -110 -22 -22 0 -123 65 -123 80
0 8 9 29 19 46 19 31 43 42 241 117 33 12 38 5 54 -80z m169 -50 c-4 -23 -11
-33 -23 -33 -13 0 -20 14 -29 57 -15 78 -15 78 23 41 29 -28 33 -38 29 -65z
m1391 48 l28 -39 -47 -80 -46 -80 -147 39 c-81 21 -150 39 -154 39 -8 0 -22
60 -15 66 7 7 341 101 348 98 3 -2 18 -21 33 -43z m442 19 c130 -29 164 -44
164 -72 0 -5 -25 -45 -56 -89 -47 -66 -60 -79 -77 -73 -24 8 -93 7 -106 0 -5
-4 -29 27 -53 66 -24 40 -50 83 -58 94 -12 20 -11 25 13 54 15 17 27 36 27 41
0 11 -16 14 146 -21z m-1056 -30 c0 -50 -11 -67 -48 -78 -20 -7 -40 -8 -45 -3
-5 5 11 35 35 69 43 60 58 63 58 12z m-1280 -27 c-1 -21 -19 -35 -36 -29 -18
7 -18 8 0 22 22 15 36 18 36 7z m2832 -26 c22 -28 23 -26 -11 -132 -24 -79
-31 -90 -51 -90 -18 0 -35 21 -87 108 -47 78 -63 113 -58 128 7 20 11 21 98
14 77 -6 95 -10 109 -28z m-666 -88 c30 -46 54 -86 54 -89 0 -3 -9 -16 -19
-29 l-18 -24 -109 28 c-149 38 -204 55 -204 61 0 3 18 36 40 72 l39 67 82 -1
81 0 54 -85z m-696 62 c0 -11 16 -79 35 -151 19 -72 35 -135 35 -140 0 -4 -20
-20 -45 -35 l-45 -26 -28 20 c-15 10 -46 39 -69 63 l-42 43 34 90 c19 50 34
100 35 113 0 24 27 40 68 41 15 1 22 -5 22 -18z m-1467 -47 c248 -137 560
-356 770 -541 217 -191 418 -437 501 -614 52 -113 66 -166 66 -256 0 -220
-201 -328 -550 -295 -125 11 -380 67 -380 83 0 13 14 12 135 -16 237 -54 497
-56 612 -5 175 77 204 250 84 496 -175 358 -670 800 -1263 1129 -59 33 -107
63 -108 68 0 17 38 3 133 -49z m2584 42 c0 -1 30 -50 66 -109 58 -96 63 -111
53 -132 -7 -17 -19 -25 -36 -25 -34 1 -210 26 -213 31 -1 2 -11 22 -20 43
l-18 39 56 84 c51 78 57 83 83 77 15 -4 28 -7 29 -8z m381 -206 c34 -96 62
-180 62 -187 0 -27 -23 -21 -90 23 -60 40 -70 51 -70 76 0 17 -9 43 -21 59
l-21 29 33 96 c18 52 35 91 39 87 4 -4 35 -87 68 -183z m-3090 153 c26 -15 49
-28 50 -29 2 -1 1 -15 -2 -31 -4 -19 -17 -33 -36 -42 -50 -21 -54 -97 -7 -118
15 -7 27 -23 30 -40 3 -15 5 -29 4 -30 -1 -1 -23 3 -49 7 -58 11 -147 -2 -202
-31 -63 -32 -131 -105 -163 -173 -24 -53 -28 -73 -28 -156 0 -84 3 -102 28
-152 58 -118 161 -188 288 -196 96 -6 166 14 234 66 41 31 104 114 117 154 2
6 59 -3 131 -19 l127 -28 0 -63 c0 -70 -3 -72 -88 -87 -38 -6 -46 -4 -67 19
-13 14 -33 26 -45 26 -27 0 -60 -34 -60 -62 0 -29 9 -42 39 -57 20 -11 27 -10
50 7 25 18 91 39 91 29 0 -10 -297 -191 -405 -248 l-110 -57 -125 70 c-69 39
-197 118 -285 177 l-160 106 -8 115 c-5 63 -5 207 -2 319 l7 203 142 93 c176
116 415 254 439 255 10 0 39 -12 65 -27z m647 18 c5 -9 -34 -86 -40 -79 -1 2
-5 22 -9 46 -6 40 -5 42 18 42 14 0 27 -4 31 -9z m735 -1 c0 -9 -30 -91 -37
-99 -1 -2 -11 4 -22 13 -16 15 -17 22 -8 51 5 19 17 36 26 38 29 8 41 7 41 -3z
m-896 -52 c3 -18 8 -57 12 -85 l7 -53 -94 61 c-113 74 -105 68 -88 73 21 6
132 33 145 35 7 0 14 -14 18 -31z m1304 -12 c67 -18 125 -36 128 -39 3 -3 -13
-40 -37 -82 -41 -72 -45 -76 -73 -71 -16 3 -45 6 -66 6 l-38 0 -21 88 c-12 48
-24 97 -27 110 -4 12 -2 22 2 22 5 0 64 -15 132 -34z m-961 -59 c29 -48 48
-89 44 -96 -6 -9 -37 -8 -129 5 l-122 17 0 29 c0 15 12 50 28 78 27 49 27 50
77 50 l51 0 51 -83z m-607 -23 c12 -12 4 -14 -55 -14 -59 0 -72 3 -83 20 -9
15 -9 25 0 45 l11 25 56 -32 c31 -17 63 -37 71 -44z m969 35 c24 -8 39 -8 62
1 25 11 32 10 49 -5 11 -10 20 -22 20 -26 0 -15 -92 -161 -105 -165 -7 -3 -52
6 -101 20 -77 23 -103 37 -104 56 0 5 138 130 144 130 2 0 17 -5 35 -11z
m1034 -70 c66 -18 77 -24 77 -43 0 -20 -21 -30 -167 -87 -93 -35 -170 -64
-173 -64 -3 0 -25 21 -48 47 l-44 47 33 58 c18 32 41 70 51 85 l18 26 88 -24
c48 -13 122 -34 165 -45z m-1871 -45 c84 -51 79 -65 -46 -133 -63 -33 -104
-50 -111 -45 -7 5 -35 26 -63 47 -56 42 -74 87 -54 132 9 20 20 25 64 28 142
10 147 9 210 -29z m1127 -58 c56 -57 62 -66 52 -85 -14 -25 -7 -25 -112 2
l-87 22 37 62 c20 34 38 62 41 63 3 0 34 -29 69 -64z m-641 19 c18 -4 32 -12
32 -20 0 -7 11 -23 25 -33 22 -17 28 -36 41 -113 8 -50 13 -94 11 -96 -3 -2
-39 26 -81 61 -42 36 -112 93 -156 126 -86 65 -94 74 -87 94 5 12 48 9 215
-19z m1880 4 c84 -11 93 -14 105 -38 12 -23 10 -32 -16 -86 -16 -33 -34 -65
-39 -72 -7 -9 -35 9 -104 68 -52 44 -96 85 -99 89 -3 5 -3 21 1 35 5 22 11 25
33 21 14 -3 68 -10 119 -17z m-385 -51 c9 -13 -5 -42 -67 -145 -43 -70 -83
-136 -91 -146 -12 -16 -18 -16 -106 16 l-93 33 -2 68 -2 68 36 15 c131 56 280
111 296 110 10 -1 24 -10 29 -19z m-1229 -9 c39 -11 74 -24 78 -27 3 -4 -9
-25 -28 -47 l-35 -40 -35 40 c-55 61 -77 95 -63 95 6 0 44 -9 83 -21z m1559
-117 c42 -36 77 -67 77 -70 0 -3 -20 -43 -46 -88 -37 -69 -49 -84 -69 -84 -22
0 -28 12 -74 159 -56 176 -56 172 -39 189 8 8 19 5 42 -15 17 -14 66 -55 109
-91z m447 -9 c7 -49 33 -90 66 -105 22 -10 24 -17 24 -77 0 -36 3 -96 7 -133
4 -52 3 -68 -7 -68 -7 0 -66 43 -130 95 l-117 95 -7 146 c-5 131 -4 148 11
159 14 11 27 6 82 -30 60 -38 66 -45 71 -82z m-2089 65 c79 -94 76 -81 28
-138 -23 -27 -45 -50 -49 -50 -4 0 -12 46 -19 103 -7 56 -14 110 -17 120 -10
31 13 18 57 -35z m-1831 -18 c-24 -19 -92 -77 -152 -127 -102 -88 -128 -105
-128 -84 0 10 115 114 230 206 57 46 86 63 89 54 2 -7 -15 -29 -39 -49z m1244
25 c14 -14 39 -28 56 -31 l30 -6 0 -76 0 -75 -42 7 c-24 4 -82 14 -129 22 -83
15 -87 17 -103 51 -9 20 -14 38 -11 41 8 8 159 91 167 91 4 1 18 -10 32 -24z
m2073 -141 c29 -87 53 -163 53 -169 -1 -5 -9 -20 -19 -32 l-18 -22 -149 50
c-82 28 -153 54 -157 58 -4 5 18 50 50 102 33 52 70 113 83 136 22 41 25 42
64 39 l40 -4 53 -158z m397 104 c12 -137 14 -188 8 -188 -4 0 -33 24 -64 53
l-58 52 41 73 c22 39 47 72 54 72 9 0 15 -20 19 -62z m-2312 -106 c6 -171 -7
-485 -27 -657 -29 -249 -100 -585 -123 -585 -10 0 -13 7 -9 23 3 12 17 72 31
132 75 319 115 751 101 1080 -7 141 -6 158 8 147 11 -9 16 -43 19 -140z m818
114 l85 -23 0 -39 0 -39 -145 -21 c-80 -12 -148 -19 -152 -15 -9 8 102 160
117 160 6 1 48 -10 95 -23z m-2183 -251 c0 -204 -1 -224 -16 -215 -9 5 -70 55
-135 111 l-120 102 45 40 c50 45 220 187 223 187 2 0 3 -101 3 -225z m1460
127 c29 -49 22 -67 -21 -56 -24 6 -26 11 -26 54 0 27 -3 57 -6 67 -5 16 -4 16
11 -2 9 -11 28 -39 42 -63z m127 -45 c45 -38 82 -75 84 -82 2 -7 -27 -39 -64
-71 -52 -47 -72 -58 -94 -56 -16 2 -44 -4 -64 -12 l-36 -15 0 33 c0 28 8 39
47 70 26 20 58 36 73 36 14 0 31 5 38 12 28 28 1 98 -38 98 -14 0 -26 16 -48
64 -7 15 17 -4 102 -77z m-1947 -53 c231 -228 542 -458 878 -650 142 -81 130
-72 121 -81 -23 -23 -436 230 -701 431 -176 134 -451 406 -410 406 2 0 52 -48
112 -106z m2657 30 l24 -52 -79 -78 c-43 -43 -81 -75 -85 -71 -3 3 -39 52 -80
109 l-74 103 128 21 c70 12 130 21 135 20 4 -1 18 -24 31 -52z m1326 -4 l68
-60 7 -76 c4 -41 5 -77 3 -80 -3 -2 -46 4 -97 13 -89 16 -94 18 -107 48 -7 17
-19 37 -27 44 -13 10 -10 20 15 69 40 75 57 102 64 102 4 0 37 -27 74 -60z
m-2446 20 c59 -11 111 -22 117 -25 10 -7 11 -138 1 -171 l-7 -21 -105 23
c-143 32 -133 26 -125 82 3 26 2 66 -3 90 -12 50 -20 48 122 22z m870 -131
l87 -120 -30 -35 c-17 -19 -34 -33 -38 -32 -5 1 -24 21 -43 44 -19 23 -66 76
-104 118 l-69 77 33 34 c54 56 66 50 164 -86z m783 85 c43 -15 80 -29 81 -30
2 -1 -20 -43 -50 -93 -69 -118 -80 -119 -144 -10 -39 67 -45 84 -35 98 6 9 19
28 29 44 9 15 22 25 29 23 7 -3 47 -17 90 -32z m-1360 -2 c9 -6 3 -18 -22 -42
l-35 -34 0 42 c0 37 3 42 23 42 12 0 28 -4 34 -8z m930 -77 c3 -1 -117 -298
-123 -304 -1 -2 -22 35 -45 82 l-42 85 78 85 78 86 26 -17 c14 -9 27 -16 28
-17z m728 -18 l150 -52 0 -34 c0 -31 -5 -36 -76 -77 l-75 -44 -40 20 c-46 24
-87 19 -124 -15 -23 -20 -28 -21 -60 -10 -21 7 -36 20 -39 31 -2 10 -7 24 -12
30 -11 14 96 204 114 203 7 0 80 -24 162 -52z m-3551 -20 c-135 -155 -172
-202 -224 -279 -223 -333 -205 -567 49 -646 77 -24 357 -23 489 2 357 66 825
269 1260 547 68 44 125 79 128 79 2 0 4 -6 4 -12 0 -7 -53 -47 -118 -89 -513
-334 -1087 -557 -1481 -576 -254 -12 -417 46 -484 171 -31 59 -31 195 1 287
46 132 183 342 327 497 70 75 113 92 49 19z m2150 44 c9 -14 -117 -125 -311
-274 -9 -7 -13 -5 -13 6 0 8 53 57 118 110 64 52 133 111 151 131 36 37 46 42
55 27z m962 -83 c40 -68 48 -90 46 -123 -2 -22 3 -48 10 -57 19 -26 71 -34 91
-14 19 19 34 20 66 2 14 -8 25 -23 26 -37 1 -13 5 -34 9 -46 6 -19 -9 -39 -94
-130 -56 -59 -105 -109 -108 -111 -4 -1 -6 48 -4 109 l3 111 -40 38 c-38 37
-42 45 -72 176 -30 131 -30 138 -13 151 10 7 21 13 25 13 3 0 28 -37 55 -82z
m1168 -13 c41 -33 75 -63 76 -66 0 -4 -26 -1 -57 7 -32 7 -76 17 -98 21 l-40
9 -3 63 -3 63 24 -18 c14 -11 59 -46 101 -79z m-4129 -12 c41 -38 121 -104
178 -148 l105 -80 6 -55 c20 -169 39 -301 56 -383 10 -50 15 -95 11 -100 -15
-16 -232 -57 -357 -68 -220 -20 -365 10 -439 92 -43 48 -49 71 -42 162 8 117
88 279 220 445 58 74 175 202 184 202 3 0 38 -30 78 -67z m2203 -115 l55 -69
-30 -37 c-20 -24 -40 -38 -59 -40 -41 -5 -74 -39 -74 -77 0 -17 5 -36 11 -42
8 -8 1 -34 -25 -94 -25 -58 -33 -86 -26 -93 7 -7 87 -13 198 -16 l187 -5 -3
-40 c-2 -22 -6 -42 -9 -45 -2 -3 -41 -7 -84 -9 -70 -3 -83 -1 -102 17 -33 31
-72 37 -103 17 -25 -16 -27 -15 -92 30 -113 77 -104 67 -86 111 19 46 13 98
-16 129 l-21 22 41 89 c27 58 53 99 76 117 26 22 34 36 34 62 0 18 -7 38 -15
45 -10 8 -15 29 -15 59 l1 46 50 -54 c28 -30 76 -86 107 -123z m-222 71 c-14
-17 -26 -34 -26 -39 0 -4 -26 -34 -57 -67 l-58 -58 -63 5 -63 5 93 72 c51 40
116 92 143 116 49 43 50 44 53 21 2 -15 -6 -36 -22 -55z m-216 28 c0 -2 -20
-18 -45 -36 -39 -28 -45 -30 -45 -13 0 11 13 25 33 35 30 15 57 21 57 14z
m2214 -91 c3 -28 6 -81 6 -117 0 -88 -9 -91 -119 -40 l-86 40 -179 5 c-98 3
-180 7 -181 8 -1 2 -5 14 -8 28 -6 23 1 29 76 72 l83 48 41 -21 c37 -18 47
-19 78 -9 20 6 47 26 61 44 l26 33 98 -20 97 -19 7 -52z m-1495 -50 c46 -86
49 -96 39 -124 -22 -58 -41 -47 -103 55 l-57 95 33 34 c18 19 34 34 35 34 1 0
25 -42 53 -94z m1639 73 c64 -12 92 -29 92 -54 0 -22 -172 -156 -185 -145 -7
6 -12 52 -14 116 l-2 107 23 -6 c13 -3 51 -11 86 -18z m-2188 -159 c-32 -75
-48 -100 -62 -100 -15 0 -18 8 -18 48 0 44 4 51 56 105 31 32 59 56 62 53 2
-3 -15 -50 -38 -106z m378 -27 c34 -55 82 -145 82 -155 0 -4 -37 10 -82 31
-77 36 -83 41 -90 76 -7 32 -5 40 19 66 16 16 31 29 34 29 4 0 20 -21 37 -47z
m-500 -31 c3 -45 -1 -58 -22 -83 -39 -46 -36 -101 8 -145 26 -26 43 -34 69
-34 25 0 53 -14 108 -53 41 -29 87 -60 102 -70 15 -10 32 -29 37 -42 19 -49
86 -61 118 -20 18 23 27 25 98 25 l78 0 -28 -29 c-67 -70 -220 -100 -413 -82
-111 10 -244 34 -340 60 -41 11 -41 12 -32 44 12 46 57 329 64 415 l7 73 72
-3 71 -3 3 -53z m-1445 -56 c3 -35 18 -134 32 -221 24 -139 26 -180 10 -163
-14 14 -76 402 -75 468 1 12 3 12 14 -2 7 -10 16 -47 19 -82z m161 -38 c61
-39 157 -97 213 -128 l103 -57 -63 -29 c-118 -53 -302 -122 -309 -116 -3 4
-17 77 -31 162 -35 217 -38 240 -31 240 4 0 57 -32 118 -72z m1011 10 c-10
-89 -52 -329 -59 -336 -7 -6 -203 64 -302 109 l-68 30 69 38 c78 42 224 132
300 185 28 19 54 34 58 35 5 1 6 -27 2 -61z m1035 -119 c-14 -49 -21 -44 -37
24 -11 50 -11 53 13 70 13 10 25 26 26 35 1 10 3 -6 5 -35 2 -29 -1 -71 -7
-94z m-252 66 c69 -33 95 -51 102 -70 6 -15 10 -28 10 -31 0 -2 -76 -4 -170
-4 -93 0 -170 2 -170 4 0 3 12 32 26 65 19 43 32 61 45 61 10 0 21 5 24 10 11
18 40 11 133 -35z m-1130 -228 c70 -30 162 -66 205 -82 71 -25 98 -45 63 -45
-35 0 -426 158 -426 173 0 15 34 5 158 -46z m-709 -279 c35 -123 114 -311 168
-401 125 -207 286 -292 427 -226 42 19 144 116 177 168 9 15 20 21 27 17 28
-17 -110 -166 -191 -207 -130 -67 -285 -6 -408 159 -69 94 -151 264 -204 425
-25 75 -45 139 -45 142 0 3 6 5 13 5 7 0 22 -35 36 -82z"/>
<path d="M2545 4706 c-66 -29 -105 -106 -91 -180 9 -45 67 -103 111 -112 103
-19 185 48 185 152 0 54 -27 101 -75 129 -46 28 -85 31 -130 11z"/>
<path d="M825 3655 c-92 -33 -126 -139 -76 -233 31 -58 140 -82 203 -44 44 25
72 77 72 132 0 108 -99 181 -199 145z"/>
<path d="M3937 2902 c-23 -25 -21 -64 3 -95 19 -24 20 -40 20 -310 0 -273 -1
-285 -20 -302 -29 -26 -23 -72 11 -98 24 -17 30 -18 55 -6 43 21 53 61 26 99
-21 28 -22 37 -22 315 0 239 3 291 16 316 34 66 -41 134 -89 81z m63 -752 c0
-11 -6 -20 -14 -20 -18 0 -29 16 -21 30 11 18 35 11 35 -10z"/>
<path d="M4072 2744 c-28 -19 -29 -63 -2 -94 19 -22 20 -37 20 -557 0 -520 -1
-536 -20 -560 -11 -14 -20 -33 -20 -43 0 -39 70 -66 98 -38 17 17 15 63 -3 78
-13 11 -15 85 -15 560 0 534 0 547 20 565 11 10 20 29 20 42 0 27 -33 63 -58
63 -10 0 -28 -7 -40 -16z m56 -47 c2 -12 -3 -17 -17 -17 -12 0 -21 6 -21 13 0
31 32 34 38 4z"/>
<path d="M4905 2695 c-18 -9 -68 -15 -125 -15 -52 -1 -130 -5 -173 -9 l-79 -7
-173 -179 -174 -180 0 -474 c-1 -430 -3 -476 -18 -493 -25 -27 -7 -72 30 -76
50 -6 72 32 46 79 -7 14 -10 171 -9 487 l1 467 167 168 167 167 167 0 c92 0
179 -5 194 -10 21 -8 31 -7 45 6 25 22 24 61 0 74 -24 12 -28 12 -66 -5z"/>
<path d="M5226 2599 c-22 -18 -44 -19 -317 -19 l-293 0 -150 -149 c-83 -82
-166 -156 -183 -165 l-33 -17 0 -137 0 -138 30 -29 30 -29 0 -213 c0 -203 -1
-214 -21 -234 -15 -15 -19 -28 -14 -47 10 -40 24 -52 61 -52 56 0 83 61 45 99
-17 17 -20 41 -26 220 -4 111 -5 201 -2 201 3 0 30 -6 60 -14 72 -19 221 -30
242 -19 30 17 -8 33 -107 45 -129 15 -157 23 -206 59 l-42 31 0 117 0 118 48
31 c26 17 103 87 171 156 l125 126 282 0 c238 0 283 -2 294 -15 21 -25 69 -19
82 10 25 55 -30 101 -76 64z"/>
<path d="M5200 2475 c-10 -13 -53 -15 -269 -15 l-256 0 -78 -78 -77 -77 61
-68 61 -67 205 0 c112 0 203 -4 201 -8 -1 -4 -37 -40 -79 -80 l-76 -72 -199 0
-198 0 -62 61 c-57 57 -84 68 -84 35 0 -7 31 -43 69 -79 l69 -67 145 0 145 0
6 -24 c11 -45 81 -46 92 -1 3 13 15 27 26 31 11 3 36 23 56 43 77 79 133 121
161 121 36 0 61 28 61 68 0 51 -49 68 -90 32 -21 -19 -37 -20 -226 -20 l-202
0 -41 48 -40 49 52 51 52 52 241 2 c224 3 243 2 277 -17 43 -23 66 -15 81 28
18 49 -51 91 -84 52z"/>
<path d="M4731 2367 c-14 -6 -29 -25 -34 -41 -20 -61 65 -114 108 -66 17 18
30 20 165 20 107 0 155 -4 174 -14 34 -18 65 -10 78 20 23 49 -48 100 -82 59
-10 -12 -41 -15 -162 -15 -146 0 -151 1 -180 25 -34 29 -35 29 -67 12z m46
-53 c3 -8 1 -20 -5 -26 -15 -15 -43 8 -35 28 7 19 32 18 40 -2z"/>
<path d="M4432 2268 c-19 -19 -14 -46 14 -65 14 -10 50 -39 79 -65 69 -60 104
-70 245 -66 100 3 115 5 118 21 3 15 -8 17 -132 17 l-136 0 -53 53 c-28 28
-60 67 -69 85 -18 33 -45 41 -66 20z"/>
<path d="M2550 1998 c-76 -52 -98 -125 -61 -202 41 -83 146 -110 222 -56 38
28 59 75 59 132 0 115 -129 188 -220 126z"/>
<path d="M2934 811 c-60 -27 -94 -99 -94 -196 0 -88 13 -130 54 -173 56 -59
143 -64 210 -11 25 19 26 25 26 110 l0 90 -67 -3 -68 -3 -3 -37 c-3 -37 -3
-38 32 -38 30 0 36 -4 36 -21 0 -46 -81 -67 -113 -31 -24 26 -36 103 -26 159
11 56 33 83 69 83 27 0 60 -27 60 -49 0 -9 9 -11 33 -6 54 12 57 17 31 70 -31
66 -109 90 -180 56z"/>
<path d="M4954 819 c-66 -19 -102 -102 -74 -170 11 -25 30 -39 89 -68 83 -40
100 -66 61 -94 -32 -22 -75 -5 -89 35 -9 25 -15 29 -33 24 -13 -3 -29 -6 -35
-6 -19 0 -16 -40 5 -79 26 -48 76 -74 130 -67 58 8 88 30 108 81 33 87 -1 151
-97 186 -65 24 -88 49 -64 69 22 18 69 8 80 -18 8 -19 17 -22 45 -20 32 3 35
5 32 32 -5 44 -38 84 -80 96 -20 5 -39 10 -42 9 -3 0 -19 -5 -36 -10z"/>
<path d="M5525 815 c-22 -8 -41 -15 -42 -15 -1 0 -14 -21 -30 -47 -22 -39 -28
-61 -31 -132 -3 -79 -1 -91 25 -140 62 -121 184 -118 243 5 25 50 21 60 -28
70 -25 5 -32 3 -32 -8 0 -9 -10 -27 -21 -42 -30 -38 -68 -32 -92 14 -25 48
-20 169 7 199 29 32 72 28 91 -10 14 -27 20 -30 48 -24 46 10 48 15 27 62 -30
68 -93 94 -165 68z"/>
<path d="M438 653 l-3 -168 -24 0 c-19 0 -27 7 -33 33 -9 33 -16 36 -57 25
-21 -5 -23 -10 -18 -45 7 -55 31 -85 76 -99 32 -9 44 -9 74 6 59 28 67 59 67
249 l0 166 -40 0 -40 0 -2 -167z"/>
<path d="M570 780 c0 -39 1 -40 35 -40 34 0 35 1 35 40 0 39 -1 40 -35 40 -34
0 -35 -1 -35 -40z"/>
<path d="M1150 610 l0 -210 40 0 39 0 3 111 c3 93 6 114 20 123 33 20 43 -7
46 -124 l4 -110 35 0 35 0 -4 129 c-3 121 -5 131 -27 155 -26 27 -59 33 -92
16 -18 -10 -19 -7 -19 55 l0 65 -40 0 -40 0 0 -210z"/>
<path d="M1750 780 l0 -40 66 0 c79 0 80 10 -16 -145 -57 -92 -70 -120 -70
-154 l0 -42 133 3 132 3 0 35 0 35 -82 3 c-46 2 -83 5 -83 7 0 3 36 63 80 133
62 100 80 137 80 165 l0 37 -120 0 -120 0 0 -40z"/>
<path d="M4560 665 c0 -172 11 -220 58 -251 39 -25 113 -24 149 2 48 36 53 56
53 237 l0 167 -34 0 -34 0 -4 -153 c-3 -164 -10 -187 -53 -187 -48 0 -55 24
-55 188 l0 152 -40 0 -40 0 0 -155z"/>
<path d="M5147 813 c-4 -3 -7 -21 -7 -39 0 -32 1 -33 48 -36 l47 -3 3 -167 2
-168 35 0 35 0 2 168 3 167 43 3 c42 3 42 3 42 43 l0 39 -123 0 c-68 0 -127
-3 -130 -7z"/>
<path d="M4235 781 c-109 -51 -146 -254 -67 -365 40 -57 84 -78 156 -73 54 3
62 7 97 45 22 23 39 46 39 52 0 21 -43 9 -78 -21 -32 -28 -40 -31 -84 -27 -32
4 -57 13 -73 28 -82 78 -66 263 27 314 32 18 40 18 77 7 54 -16 81 -58 81
-126 0 -35 -7 -61 -22 -85 l-23 -35 -3 28 c-2 15 1 58 7 94 6 36 8 70 6 74 -6
8 -90 10 -118 2 -53 -14 -80 -172 -38 -224 26 -32 137 -38 174 -9 38 30 59 84
58 151 0 80 -28 138 -80 167 -47 27 -83 27 -136 3z m75 -146 c14 -17 5 -89
-17 -123 -11 -19 -17 -21 -29 -11 -19 16 -18 98 2 127 18 26 27 27 44 7z"/>
<path d="M776 703 c-3 -4 -27 -6 -51 -4 l-45 2 0 -151 0 -150 35 0 35 0 0 95
c0 93 12 145 35 145 28 0 35 -26 35 -132 l0 -108 35 0 35 0 0 123 c0 104 -3
127 -20 155 -16 26 -26 32 -53 32 -19 0 -37 -3 -41 -7z"/>
<path d="M948 703 c-24 -4 -28 -9 -28 -38 0 -34 0 -34 50 -37 l50 -3 -50 -75
c-38 -57 -50 -84 -50 -112 l0 -38 99 0 c57 0 103 4 106 10 4 6 4 24 0 40 -6
28 -9 30 -56 30 -27 0 -49 2 -49 4 0 3 23 39 50 80 36 55 50 85 50 111 l0 35
-72 -1 c-40 -1 -85 -4 -100 -6z"/>
<path d="M1452 694 c-71 -49 -78 -193 -14 -265 49 -55 146 -35 168 34 12 37
-52 52 -74 17 -7 -11 -16 -20 -21 -20 -16 0 -41 31 -41 51 0 17 8 19 75 19 85
0 85 0 64 86 -20 79 -99 119 -157 78z m82 -76 c20 -28 12 -38 -30 -38 -26 0
-34 4 -34 18 0 21 18 42 36 42 7 0 20 -10 28 -22z"/>
<path d="M2062 694 c-46 -32 -72 -131 -53 -201 25 -93 125 -128 183 -64 35 39
36 59 2 67 -18 5 -31 1 -48 -15 -12 -11 -25 -21 -28 -21 -14 0 -38 33 -38 51
0 17 8 19 75 19 84 0 83 -2 64 80 -20 86 -96 127 -157 84z m88 -73 c17 -33 11
-41 -30 -41 -22 0 -40 5 -40 11 0 22 22 49 40 49 11 0 24 -9 30 -19z"/>
<path d="M2337 693 c-11 -11 -17 -13 -17 -5 0 7 -13 12 -30 12 l-30 0 0 -151
0 -150 30 3 31 3 2 102 c2 80 6 106 19 119 9 9 23 14 32 11 12 -5 16 -28 18
-119 l3 -113 33 -3 32 -3 0 129 c0 116 -2 132 -21 156 -24 31 -75 35 -102 9z"/>
<path d="M2526 680 c-30 -37 -40 -84 -33 -156 10 -93 68 -145 124 -109 24 16
24 16 21 -16 -4 -46 -31 -59 -61 -31 -13 12 -35 22 -50 22 -22 0 -27 -5 -27
-25 0 -43 41 -75 95 -75 101 0 115 31 115 250 l0 160 -30 0 c-16 0 -30 -5 -30
-12 0 -6 -7 -4 -18 5 -30 28 -76 21 -106 -13z m102 -52 c7 -7 12 -37 12 -68 0
-58 -11 -80 -42 -80 -26 0 -41 37 -35 93 5 60 35 85 65 55z"/>
<path d="M3246 703 c-4 -4 -23 -6 -42 -4 l-34 3 0 -151 0 -151 29 0 28 0 5 98
c7 118 13 136 44 128 20 -5 24 -2 30 28 3 19 3 39 -1 45 -7 12 -48 15 -59 4z"/>
<path d="M3361 684 c-68 -57 -68 -200 0 -263 25 -23 86 -29 121 -10 50 27 73
151 42 228 -29 73 -105 94 -163 45z m91 -61 c26 -23 25 -113 -2 -138 -38 -35
-76 15 -67 88 8 63 34 82 69 50z"/>
<path d="M3707 704 c-4 -4 -7 -50 -7 -101 0 -97 -10 -133 -36 -133 -23 0 -34
44 -34 141 l0 89 -30 0 -30 0 0 -124 c0 -110 2 -126 21 -150 15 -19 30 -26 54
-26 19 0 37 5 40 10 5 8 11 7 20 0 8 -6 24 -10 37 -8 23 3 23 4 23 153 l0 150
-25 3 c-14 2 -29 0 -33 -4z"/>
<path d="M3882 694 c-12 -8 -22 -10 -22 -5 0 6 -13 11 -30 11 l-30 0 0 -206 0
-205 33 3 c32 3 32 3 37 68 3 38 8 60 13 53 5 -7 23 -13 41 -13 58 0 96 61 96
155 0 120 -68 188 -138 139z m52 -76 c32 -45 11 -148 -29 -148 -22 0 -35 34
-35 89 0 72 34 103 64 59z"/>
<path d="M570 550 l0 -150 35 0 35 0 0 150 0 150 -35 0 -35 0 0 -150z"/>
</g>
</svg>
