<!DOCTYPE svg  PUBLIC '-//W3C//DTD SVG 20010904//EN'  'http://www.w3.org/TR/2001/REC-SVG-20010904/DTD/svg10.dtd'>
<svg width="468" height="468" viewBox="0 0 468 468" xmlns="http://www.w3.org/2000/svg" xmlns:xlink="http://www.w3.org/1999/xlink"><rect width="468" height="468" cx="0" cy="0" fill="#fff"/><defs><rect id="a" width="12" height="12"/></defs><g><use x="12" y="12" xlink:href="#a"/><use x="24" y="12" xlink:href="#a"/><use x="36" y="12" xlink:href="#a"/><use x="48" y="12" xlink:href="#a"/><use x="60" y="12" xlink:href="#a"/><use x="72" y="12" xlink:href="#a"/><use x="84" y="12" xlink:href="#a"/><use x="108" y="12" xlink:href="#a"/><use x="168" y="12" xlink:href="#a"/><use x="192" y="12" xlink:href="#a"/><use x="204" y="12" xlink:href="#a"/><use x="228" y="12" xlink:href="#a"/><use x="240" y="12" xlink:href="#a"/><use x="252" y="12" xlink:href="#a"/><use x="276" y="12" xlink:href="#a"/><use x="288" y="12" xlink:href="#a"/><use x="324" y="12" xlink:href="#a"/><use x="336" y="12" xlink:href="#a"/><use x="372" y="12" xlink:href="#a"/><use x="384" y="12" xlink:href="#a"/><use x="396" y="12" xlink:href="#a"/><use x="408" y="12" xlink:href="#a"/><use x="420" y="12" xlink:href="#a"/><use x="432" y="12" xlink:href="#a"/><use x="444" y="12" xlink:href="#a"/><use x="12" y="24" xlink:href="#a"/><use x="84" y="24" xlink:href="#a"/><use x="120" y="24" xlink:href="#a"/><use x="132" y="24" xlink:href="#a"/><use x="168" y="24" xlink:href="#a"/><use x="180" y="24" xlink:href="#a"/><use x="192" y="24" xlink:href="#a"/><use x="204" y="24" xlink:href="#a"/><use x="252" y="24" xlink:href="#a"/><use x="264" y="24" xlink:href="#a"/><use x="300" y="24" xlink:href="#a"/><use x="336" y="24" xlink:href="#a"/><use x="372" y="24" xlink:href="#a"/><use x="444" y="24" xlink:href="#a"/><use x="12" y="36" xlink:href="#a"/><use x="36" y="36" xlink:href="#a"/><use x="48" y="36" xlink:href="#a"/><use x="60" y="36" xlink:href="#a"/><use x="84" y="36" xlink:href="#a"/><use x="132" y="36" xlink:href="#a"/><use x="156" y="36" xlink:href="#a"/><use x="168" y="36" xlink:href="#a"/><use x="192" y="36" xlink:href="#a"/><use x="204" y="36" xlink:href="#a"/><use x="228" y="36" xlink:href="#a"/><use x="300" y="36" xlink:href="#a"/><use x="336" y="36" xlink:href="#a"/><use x="372" y="36" xlink:href="#a"/><use x="396" y="36" xlink:href="#a"/><use x="408" y="36" xlink:href="#a"/><use x="420" y="36" xlink:href="#a"/><use x="444" y="36" xlink:href="#a"/><use x="12" y="48" xlink:href="#a"/><use x="36" y="48" xlink:href="#a"/><use x="48" y="48" xlink:href="#a"/><use x="60" y="48" xlink:href="#a"/><use x="84" y="48" xlink:href="#a"/><use x="108" y="48" xlink:href="#a"/><use x="120" y="48" xlink:href="#a"/><use x="132" y="48" xlink:href="#a"/><use x="144" y="48" xlink:href="#a"/><use x="168" y="48" xlink:href="#a"/><use x="180" y="48" xlink:href="#a"/><use x="192" y="48" xlink:href="#a"/><use x="228" y="48" xlink:href="#a"/><use x="240" y="48" xlink:href="#a"/><use x="276" y="48" xlink:href="#a"/><use x="336" y="48" xlink:href="#a"/><use x="348" y="48" xlink:href="#a"/><use x="372" y="48" xlink:href="#a"/><use x="396" y="48" xlink:href="#a"/><use x="408" y="48" xlink:href="#a"/><use x="420" y="48" xlink:href="#a"/><use x="444" y="48" xlink:href="#a"/><use x="12" y="60" xlink:href="#a"/><use x="36" y="60" xlink:href="#a"/><use x="48" y="60" xlink:href="#a"/><use x="60" y="60" xlink:href="#a"/><use x="84" y="60" xlink:href="#a"/><use x="120" y="60" xlink:href="#a"/><use x="132" y="60" xlink:href="#a"/><use x="168" y="60" xlink:href="#a"/><use x="204" y="60" xlink:href="#a"/><use x="264" y="60" xlink:href="#a"/><use x="288" y="60" xlink:href="#a"/><use x="336" y="60" xlink:href="#a"/><use x="348" y="60" xlink:href="#a"/><use x="372" y="60" xlink:href="#a"/><use x="396" y="60" xlink:href="#a"/><use x="408" y="60" xlink:href="#a"/><use x="420" y="60" xlink:href="#a"/><use x="444" y="60" xlink:href="#a"/><use x="12" y="72" xlink:href="#a"/><use x="84" y="72" xlink:href="#a"/><use x="120" y="72" xlink:href="#a"/><use x="144" y="72" xlink:href="#a"/><use x="156" y="72" xlink:href="#a"/><use x="168" y="72" xlink:href="#a"/><use x="192" y="72" xlink:href="#a"/><use x="228" y="72" xlink:href="#a"/><use x="240" y="72" xlink:href="#a"/><use x="252" y="72" xlink:href="#a"/><use x="288" y="72" xlink:href="#a"/><use x="336" y="72" xlink:href="#a"/><use x="372" y="72" xlink:href="#a"/><use x="444" y="72" xlink:href="#a"/><use x="12" y="84" xlink:href="#a"/><use x="24" y="84" xlink:href="#a"/><use x="36" y="84" xlink:href="#a"/><use x="48" y="84" xlink:href="#a"/><use x="60" y="84" xlink:href="#a"/><use x="72" y="84" xlink:href="#a"/><use x="84" y="84" xlink:href="#a"/><use x="108" y="84" xlink:href="#a"/><use x="132" y="84" xlink:href="#a"/><use x="156" y="84" xlink:href="#a"/><use x="180" y="84" xlink:href="#a"/><use x="204" y="84" xlink:href="#a"/><use x="228" y="84" xlink:href="#a"/><use x="252" y="84" xlink:href="#a"/><use x="276" y="84" xlink:href="#a"/><use x="300" y="84" xlink:href="#a"/><use x="324" y="84" xlink:href="#a"/><use x="348" y="84" xlink:href="#a"/><use x="372" y="84" xlink:href="#a"/><use x="384" y="84" xlink:href="#a"/><use x="396" y="84" xlink:href="#a"/><use x="408" y="84" xlink:href="#a"/><use x="420" y="84" xlink:href="#a"/><use x="432" y="84" xlink:href="#a"/><use x="444" y="84" xlink:href="#a"/><use x="120" y="96" xlink:href="#a"/><use x="156" y="96" xlink:href="#a"/><use x="192" y="96" xlink:href="#a"/><use x="204" y="96" xlink:href="#a"/><use x="216" y="96" xlink:href="#a"/><use x="228" y="96" xlink:href="#a"/><use x="240" y="96" xlink:href="#a"/><use x="252" y="96" xlink:href="#a"/><use x="276" y="96" xlink:href="#a"/><use x="288" y="96" xlink:href="#a"/><use x="312" y="96" xlink:href="#a"/><use x="324" y="96" xlink:href="#a"/><use x="348" y="96" xlink:href="#a"/><use x="36" y="108" xlink:href="#a"/><use x="60" y="108" xlink:href="#a"/><use x="72" y="108" xlink:href="#a"/><use x="84" y="108" xlink:href="#a"/><use x="108" y="108" xlink:href="#a"/><use x="132" y="108" xlink:href="#a"/><use x="156" y="108" xlink:href="#a"/><use x="168" y="108" xlink:href="#a"/><use x="180" y="108" xlink:href="#a"/><use x="204" y="108" xlink:href="#a"/><use x="264" y="108" xlink:href="#a"/><use x="300" y="108" xlink:href="#a"/><use x="360" y="108" xlink:href="#a"/><use x="408" y="108" xlink:href="#a"/><use x="444" y="108" xlink:href="#a"/><use x="24" y="120" xlink:href="#a"/><use x="108" y="120" xlink:href="#a"/><use x="168" y="120" xlink:href="#a"/><use x="180" y="120" xlink:href="#a"/><use x="192" y="120" xlink:href="#a"/><use x="204" y="120" xlink:href="#a"/><use x="216" y="120" xlink:href="#a"/><use x="276" y="120" xlink:href="#a"/><use x="288" y="120" xlink:href="#a"/><use x="300" y="120" xlink:href="#a"/><use x="312" y="120" xlink:href="#a"/><use x="324" y="120" xlink:href="#a"/><use x="432" y="120" xlink:href="#a"/><use x="12" y="132" xlink:href="#a"/><use x="36" y="132" xlink:href="#a"/><use x="48" y="132" xlink:href="#a"/><use x="72" y="132" xlink:href="#a"/><use x="84" y="132" xlink:href="#a"/><use x="108" y="132" xlink:href="#a"/><use x="120" y="132" xlink:href="#a"/><use x="132" y="132" xlink:href="#a"/><use x="156" y="132" xlink:href="#a"/><use x="168" y="132" xlink:href="#a"/><use x="180" y="132" xlink:href="#a"/><use x="192" y="132" xlink:href="#a"/><use x="204" y="132" xlink:href="#a"/><use x="216" y="132" xlink:href="#a"/><use x="228" y="132" xlink:href="#a"/><use x="240" y="132" xlink:href="#a"/><use x="252" y="132" xlink:href="#a"/><use x="264" y="132" xlink:href="#a"/><use x="276" y="132" xlink:href="#a"/><use x="288" y="132" xlink:href="#a"/><use x="300" y="132" xlink:href="#a"/><use x="312" y="132" xlink:href="#a"/><use x="324" y="132" xlink:href="#a"/><use x="348" y="132" xlink:href="#a"/><use x="384" y="132" xlink:href="#a"/><use x="396" y="132" xlink:href="#a"/><use x="420" y="132" xlink:href="#a"/><use x="432" y="132" xlink:href="#a"/><use x="444" y="132" xlink:href="#a"/><use x="24" y="144" xlink:href="#a"/><use x="48" y="144" xlink:href="#a"/><use x="60" y="144" xlink:href="#a"/><use x="96" y="144" xlink:href="#a"/><use x="144" y="144" xlink:href="#a"/><use x="180" y="144" xlink:href="#a"/><use x="192" y="144" xlink:href="#a"/><use x="228" y="144" xlink:href="#a"/><use x="252" y="144" xlink:href="#a"/><use x="264" y="144" xlink:href="#a"/><use x="288" y="144" xlink:href="#a"/><use x="312" y="144" xlink:href="#a"/><use x="336" y="144" xlink:href="#a"/><use x="348" y="144" xlink:href="#a"/><use x="360" y="144" xlink:href="#a"/><use x="372" y="144" xlink:href="#a"/><use x="384" y="144" xlink:href="#a"/><use x="396" y="144" xlink:href="#a"/><use x="432" y="144" xlink:href="#a"/><use x="444" y="144" xlink:href="#a"/><use x="12" y="156" xlink:href="#a"/><use x="24" y="156" xlink:href="#a"/><use x="48" y="156" xlink:href="#a"/><use x="60" y="156" xlink:href="#a"/><use x="84" y="156" xlink:href="#a"/><use x="120" y="156" xlink:href="#a"/><use x="132" y="156" xlink:href="#a"/><use x="168" y="156" xlink:href="#a"/><use x="252" y="156" xlink:href="#a"/><use x="264" y="156" xlink:href="#a"/><use x="276" y="156" xlink:href="#a"/><use x="288" y="156" xlink:href="#a"/><use x="300" y="156" xlink:href="#a"/><use x="312" y="156" xlink:href="#a"/><use x="348" y="156" xlink:href="#a"/><use x="372" y="156" xlink:href="#a"/><use x="384" y="156" xlink:href="#a"/><use x="396" y="156" xlink:href="#a"/><use x="444" y="156" xlink:href="#a"/><use x="12" y="168" xlink:href="#a"/><use x="24" y="168" xlink:href="#a"/><use x="36" y="168" xlink:href="#a"/><use x="48" y="168" xlink:href="#a"/><use x="108" y="168" xlink:href="#a"/><use x="204" y="168" xlink:href="#a"/><use x="216" y="168" xlink:href="#a"/><use x="228" y="168" xlink:href="#a"/><use x="252" y="168" xlink:href="#a"/><use x="276" y="168" xlink:href="#a"/><use x="288" y="168" xlink:href="#a"/><use x="312" y="168" xlink:href="#a"/><use x="348" y="168" xlink:href="#a"/><use x="360" y="168" xlink:href="#a"/><use x="372" y="168" xlink:href="#a"/><use x="432" y="168" xlink:href="#a"/><use x="24" y="180" xlink:href="#a"/><use x="36" y="180" xlink:href="#a"/><use x="60" y="180" xlink:href="#a"/><use x="72" y="180" xlink:href="#a"/><use x="84" y="180" xlink:href="#a"/><use x="96" y="180" xlink:href="#a"/><use x="120" y="180" xlink:href="#a"/><use x="192" y="180" xlink:href="#a"/><use x="204" y="180" xlink:href="#a"/><use x="216" y="180" xlink:href="#a"/><use x="228" y="180" xlink:href="#a"/><use x="300" y="180" xlink:href="#a"/><use x="324" y="180" xlink:href="#a"/><use x="360" y="180" xlink:href="#a"/><use x="384" y="180" xlink:href="#a"/><use x="408" y="180" xlink:href="#a"/><use x="432" y="180" xlink:href="#a"/><use x="444" y="180" xlink:href="#a"/><use x="24" y="192" xlink:href="#a"/><use x="36" y="192" xlink:href="#a"/><use x="96" y="192" xlink:href="#a"/><use x="132" y="192" xlink:href="#a"/><use x="144" y="192" xlink:href="#a"/><use x="156" y="192" xlink:href="#a"/><use x="180" y="192" xlink:href="#a"/><use x="192" y="192" xlink:href="#a"/><use x="204" y="192" xlink:href="#a"/><use x="216" y="192" xlink:href="#a"/><use x="300" y="192" xlink:href="#a"/><use x="312" y="192" xlink:href="#a"/><use x="324" y="192" xlink:href="#a"/><use x="336" y="192" xlink:href="#a"/><use x="360" y="192" xlink:href="#a"/><use x="432" y="192" xlink:href="#a"/><use x="36" y="204" xlink:href="#a"/><use x="48" y="204" xlink:href="#a"/><use x="60" y="204" xlink:href="#a"/><use x="84" y="204" xlink:href="#a"/><use x="96" y="204" xlink:href="#a"/><use x="108" y="204" xlink:href="#a"/><use x="144" y="204" xlink:href="#a"/><use x="168" y="204" xlink:href="#a"/><use x="180" y="204" xlink:href="#a"/><use x="192" y="204" xlink:href="#a"/><use x="204" y="204" xlink:href="#a"/><use x="240" y="204" xlink:href="#a"/><use x="288" y="204" xlink:href="#a"/><use x="372" y="204" xlink:href="#a"/><use x="408" y="204" xlink:href="#a"/><use x="432" y="204" xlink:href="#a"/><use x="48" y="216" xlink:href="#a"/><use x="132" y="216" xlink:href="#a"/><use x="156" y="216" xlink:href="#a"/><use x="168" y="216" xlink:href="#a"/><use x="228" y="216" xlink:href="#a"/><use x="240" y="216" xlink:href="#a"/><use x="252" y="216" xlink:href="#a"/><use x="264" y="216" xlink:href="#a"/><use x="312" y="216" xlink:href="#a"/><use x="324" y="216" xlink:href="#a"/><use x="336" y="216" xlink:href="#a"/><use x="348" y="216" xlink:href="#a"/><use x="372" y="216" xlink:href="#a"/><use x="408" y="216" xlink:href="#a"/><use x="420" y="216" xlink:href="#a"/><use x="444" y="216" xlink:href="#a"/><use x="36" y="228" xlink:href="#a"/><use x="48" y="228" xlink:href="#a"/><use x="60" y="228" xlink:href="#a"/><use x="72" y="228" xlink:href="#a"/><use x="84" y="228" xlink:href="#a"/><use x="96" y="228" xlink:href="#a"/><use x="120" y="228" xlink:href="#a"/><use x="132" y="228" xlink:href="#a"/><use x="144" y="228" xlink:href="#a"/><use x="156" y="228" xlink:href="#a"/><use x="192" y="228" xlink:href="#a"/><use x="204" y="228" xlink:href="#a"/><use x="228" y="228" xlink:href="#a"/><use x="252" y="228" xlink:href="#a"/><use x="264" y="228" xlink:href="#a"/><use x="276" y="228" xlink:href="#a"/><use x="324" y="228" xlink:href="#a"/><use x="360" y="228" xlink:href="#a"/><use x="372" y="228" xlink:href="#a"/><use x="384" y="228" xlink:href="#a"/><use x="408" y="228" xlink:href="#a"/><use x="420" y="228" xlink:href="#a"/><use x="432" y="228" xlink:href="#a"/><use x="444" y="228" xlink:href="#a"/><use x="12" y="240" xlink:href="#a"/><use x="24" y="240" xlink:href="#a"/><use x="36" y="240" xlink:href="#a"/><use x="60" y="240" xlink:href="#a"/><use x="108" y="240" xlink:href="#a"/><use x="120" y="240" xlink:href="#a"/><use x="132" y="240" xlink:href="#a"/><use x="144" y="240" xlink:href="#a"/><use x="156" y="240" xlink:href="#a"/><use x="180" y="240" xlink:href="#a"/><use x="192" y="240" xlink:href="#a"/><use x="204" y="240" xlink:href="#a"/><use x="252" y="240" xlink:href="#a"/><use x="288" y="240" xlink:href="#a"/><use x="300" y="240" xlink:href="#a"/><use x="312" y="240" xlink:href="#a"/><use x="336" y="240" xlink:href="#a"/><use x="384" y="240" xlink:href="#a"/><use x="432" y="240" xlink:href="#a"/><use x="444" y="240" xlink:href="#a"/><use x="24" y="252" xlink:href="#a"/><use x="36" y="252" xlink:href="#a"/><use x="48" y="252" xlink:href="#a"/><use x="60" y="252" xlink:href="#a"/><use x="72" y="252" xlink:href="#a"/><use x="84" y="252" xlink:href="#a"/><use x="108" y="252" xlink:href="#a"/><use x="156" y="252" xlink:href="#a"/><use x="168" y="252" xlink:href="#a"/><use x="180" y="252" xlink:href="#a"/><use x="192" y="252" xlink:href="#a"/><use x="216" y="252" xlink:href="#a"/><use x="228" y="252" xlink:href="#a"/><use x="252" y="252" xlink:href="#a"/><use x="276" y="252" xlink:href="#a"/><use x="300" y="252" xlink:href="#a"/><use x="348" y="252" xlink:href="#a"/><use x="360" y="252" xlink:href="#a"/><use x="372" y="252" xlink:href="#a"/><use x="384" y="252" xlink:href="#a"/><use x="408" y="252" xlink:href="#a"/><use x="12" y="264" xlink:href="#a"/><use x="48" y="264" xlink:href="#a"/><use x="60" y="264" xlink:href="#a"/><use x="96" y="264" xlink:href="#a"/><use x="108" y="264" xlink:href="#a"/><use x="144" y="264" xlink:href="#a"/><use x="180" y="264" xlink:href="#a"/><use x="192" y="264" xlink:href="#a"/><use x="204" y="264" xlink:href="#a"/><use x="216" y="264" xlink:href="#a"/><use x="240" y="264" xlink:href="#a"/><use x="264" y="264" xlink:href="#a"/><use x="276" y="264" xlink:href="#a"/><use x="288" y="264" xlink:href="#a"/><use x="312" y="264" xlink:href="#a"/><use x="348" y="264" xlink:href="#a"/><use x="384" y="264" xlink:href="#a"/><use x="432" y="264" xlink:href="#a"/><use x="444" y="264" xlink:href="#a"/><use x="24" y="276" xlink:href="#a"/><use x="36" y="276" xlink:href="#a"/><use x="48" y="276" xlink:href="#a"/><use x="84" y="276" xlink:href="#a"/><use x="120" y="276" xlink:href="#a"/><use x="132" y="276" xlink:href="#a"/><use x="144" y="276" xlink:href="#a"/><use x="156" y="276" xlink:href="#a"/><use x="228" y="276" xlink:href="#a"/><use x="240" y="276" xlink:href="#a"/><use x="252" y="276" xlink:href="#a"/><use x="264" y="276" xlink:href="#a"/><use x="276" y="276" xlink:href="#a"/><use x="288" y="276" xlink:href="#a"/><use x="300" y="276" xlink:href="#a"/><use x="312" y="276" xlink:href="#a"/><use x="372" y="276" xlink:href="#a"/><use x="396" y="276" xlink:href="#a"/><use x="408" y="276" xlink:href="#a"/><use x="432" y="276" xlink:href="#a"/><use x="444" y="276" xlink:href="#a"/><use x="24" y="288" xlink:href="#a"/><use x="72" y="288" xlink:href="#a"/><use x="132" y="288" xlink:href="#a"/><use x="144" y="288" xlink:href="#a"/><use x="180" y="288" xlink:href="#a"/><use x="192" y="288" xlink:href="#a"/><use x="204" y="288" xlink:href="#a"/><use x="240" y="288" xlink:href="#a"/><use x="252" y="288" xlink:href="#a"/><use x="264" y="288" xlink:href="#a"/><use x="276" y="288" xlink:href="#a"/><use x="288" y="288" xlink:href="#a"/><use x="300" y="288" xlink:href="#a"/><use x="312" y="288" xlink:href="#a"/><use x="324" y="288" xlink:href="#a"/><use x="348" y="288" xlink:href="#a"/><use x="360" y="288" xlink:href="#a"/><use x="384" y="288" xlink:href="#a"/><use x="12" y="300" xlink:href="#a"/><use x="24" y="300" xlink:href="#a"/><use x="48" y="300" xlink:href="#a"/><use x="60" y="300" xlink:href="#a"/><use x="72" y="300" xlink:href="#a"/><use x="84" y="300" xlink:href="#a"/><use x="120" y="300" xlink:href="#a"/><use x="156" y="300" xlink:href="#a"/><use x="192" y="300" xlink:href="#a"/><use x="204" y="300" xlink:href="#a"/><use x="240" y="300" xlink:href="#a"/><use x="252" y="300" xlink:href="#a"/><use x="276" y="300" xlink:href="#a"/><use x="288" y="300" xlink:href="#a"/><use x="324" y="300" xlink:href="#a"/><use x="336" y="300" xlink:href="#a"/><use x="348" y="300" xlink:href="#a"/><use x="360" y="300" xlink:href="#a"/><use x="372" y="300" xlink:href="#a"/><use x="384" y="300" xlink:href="#a"/><use x="396" y="300" xlink:href="#a"/><use x="408" y="300" xlink:href="#a"/><use x="420" y="300" xlink:href="#a"/><use x="432" y="300" xlink:href="#a"/><use x="444" y="300" xlink:href="#a"/><use x="48" y="312" xlink:href="#a"/><use x="72" y="312" xlink:href="#a"/><use x="96" y="312" xlink:href="#a"/><use x="108" y="312" xlink:href="#a"/><use x="120" y="312" xlink:href="#a"/><use x="132" y="312" xlink:href="#a"/><use x="156" y="312" xlink:href="#a"/><use x="168" y="312" xlink:href="#a"/><use x="216" y="312" xlink:href="#a"/><use x="240" y="312" xlink:href="#a"/><use x="288" y="312" xlink:href="#a"/><use x="312" y="312" xlink:href="#a"/><use x="336" y="312" xlink:href="#a"/><use x="348" y="312" xlink:href="#a"/><use x="372" y="312" xlink:href="#a"/><use x="420" y="312" xlink:href="#a"/><use x="432" y="312" xlink:href="#a"/><use x="12" y="324" xlink:href="#a"/><use x="36" y="324" xlink:href="#a"/><use x="48" y="324" xlink:href="#a"/><use x="84" y="324" xlink:href="#a"/><use x="108" y="324" xlink:href="#a"/><use x="120" y="324" xlink:href="#a"/><use x="132" y="324" xlink:href="#a"/><use x="168" y="324" xlink:href="#a"/><use x="180" y="324" xlink:href="#a"/><use x="192" y="324" xlink:href="#a"/><use x="228" y="324" xlink:href="#a"/><use x="240" y="324" xlink:href="#a"/><use x="252" y="324" xlink:href="#a"/><use x="276" y="324" xlink:href="#a"/><use x="312" y="324" xlink:href="#a"/><use x="348" y="324" xlink:href="#a"/><use x="360" y="324" xlink:href="#a"/><use x="384" y="324" xlink:href="#a"/><use x="396" y="324" xlink:href="#a"/><use x="408" y="324" xlink:href="#a"/><use x="432" y="324" xlink:href="#a"/><use x="444" y="324" xlink:href="#a"/><use x="24" y="336" xlink:href="#a"/><use x="36" y="336" xlink:href="#a"/><use x="60" y="336" xlink:href="#a"/><use x="96" y="336" xlink:href="#a"/><use x="108" y="336" xlink:href="#a"/><use x="120" y="336" xlink:href="#a"/><use x="132" y="336" xlink:href="#a"/><use x="156" y="336" xlink:href="#a"/><use x="216" y="336" xlink:href="#a"/><use x="252" y="336" xlink:href="#a"/><use x="288" y="336" xlink:href="#a"/><use x="312" y="336" xlink:href="#a"/><use x="336" y="336" xlink:href="#a"/><use x="372" y="336" xlink:href="#a"/><use x="384" y="336" xlink:href="#a"/><use x="12" y="348" xlink:href="#a"/><use x="36" y="348" xlink:href="#a"/><use x="48" y="348" xlink:href="#a"/><use x="60" y="348" xlink:href="#a"/><use x="84" y="348" xlink:href="#a"/><use x="96" y="348" xlink:href="#a"/><use x="120" y="348" xlink:href="#a"/><use x="144" y="348" xlink:href="#a"/><use x="156" y="348" xlink:href="#a"/><use x="168" y="348" xlink:href="#a"/><use x="180" y="348" xlink:href="#a"/><use x="192" y="348" xlink:href="#a"/><use x="204" y="348" xlink:href="#a"/><use x="264" y="348" xlink:href="#a"/><use x="276" y="348" xlink:href="#a"/><use x="300" y="348" xlink:href="#a"/><use x="312" y="348" xlink:href="#a"/><use x="324" y="348" xlink:href="#a"/><use x="336" y="348" xlink:href="#a"/><use x="348" y="348" xlink:href="#a"/><use x="360" y="348" xlink:href="#a"/><use x="372" y="348" xlink:href="#a"/><use x="384" y="348" xlink:href="#a"/><use x="396" y="348" xlink:href="#a"/><use x="408" y="348" xlink:href="#a"/><use x="432" y="348" xlink:href="#a"/><use x="444" y="348" xlink:href="#a"/><use x="108" y="360" xlink:href="#a"/><use x="132" y="360" xlink:href="#a"/><use x="144" y="360" xlink:href="#a"/><use x="168" y="360" xlink:href="#a"/><use x="180" y="360" xlink:href="#a"/><use x="204" y="360" xlink:href="#a"/><use x="240" y="360" xlink:href="#a"/><use x="252" y="360" xlink:href="#a"/><use x="276" y="360" xlink:href="#a"/><use x="300" y="360" xlink:href="#a"/><use x="312" y="360" xlink:href="#a"/><use x="324" y="360" xlink:href="#a"/><use x="348" y="360" xlink:href="#a"/><use x="396" y="360" xlink:href="#a"/><use x="408" y="360" xlink:href="#a"/><use x="420" y="360" xlink:href="#a"/><use x="432" y="360" xlink:href="#a"/><use x="444" y="360" xlink:href="#a"/><use x="12" y="372" xlink:href="#a"/><use x="24" y="372" xlink:href="#a"/><use x="36" y="372" xlink:href="#a"/><use x="48" y="372" xlink:href="#a"/><use x="60" y="372" xlink:href="#a"/><use x="72" y="372" xlink:href="#a"/><use x="84" y="372" xlink:href="#a"/><use x="120" y="372" xlink:href="#a"/><use x="132" y="372" xlink:href="#a"/><use x="156" y="372" xlink:href="#a"/><use x="168" y="372" xlink:href="#a"/><use x="192" y="372" xlink:href="#a"/><use x="216" y="372" xlink:href="#a"/><use x="228" y="372" xlink:href="#a"/><use x="240" y="372" xlink:href="#a"/><use x="252" y="372" xlink:href="#a"/><use x="264" y="372" xlink:href="#a"/><use x="276" y="372" xlink:href="#a"/><use x="300" y="372" xlink:href="#a"/><use x="312" y="372" xlink:href="#a"/><use x="348" y="372" xlink:href="#a"/><use x="372" y="372" xlink:href="#a"/><use x="396" y="372" xlink:href="#a"/><use x="420" y="372" xlink:href="#a"/><use x="432" y="372" xlink:href="#a"/><use x="444" y="372" xlink:href="#a"/><use x="12" y="384" xlink:href="#a"/><use x="84" y="384" xlink:href="#a"/><use x="108" y="384" xlink:href="#a"/><use x="132" y="384" xlink:href="#a"/><use x="156" y="384" xlink:href="#a"/><use x="192" y="384" xlink:href="#a"/><use x="204" y="384" xlink:href="#a"/><use x="228" y="384" xlink:href="#a"/><use x="240" y="384" xlink:href="#a"/><use x="264" y="384" xlink:href="#a"/><use x="300" y="384" xlink:href="#a"/><use x="312" y="384" xlink:href="#a"/><use x="324" y="384" xlink:href="#a"/><use x="348" y="384" xlink:href="#a"/><use x="396" y="384" xlink:href="#a"/><use x="432" y="384" xlink:href="#a"/><use x="12" y="396" xlink:href="#a"/><use x="36" y="396" xlink:href="#a"/><use x="48" y="396" xlink:href="#a"/><use x="60" y="396" xlink:href="#a"/><use x="84" y="396" xlink:href="#a"/><use x="108" y="396" xlink:href="#a"/><use x="180" y="396" xlink:href="#a"/><use x="204" y="396" xlink:href="#a"/><use x="228" y="396" xlink:href="#a"/><use x="264" y="396" xlink:href="#a"/><use x="276" y="396" xlink:href="#a"/><use x="300" y="396" xlink:href="#a"/><use x="312" y="396" xlink:href="#a"/><use x="348" y="396" xlink:href="#a"/><use x="360" y="396" xlink:href="#a"/><use x="372" y="396" xlink:href="#a"/><use x="384" y="396" xlink:href="#a"/><use x="396" y="396" xlink:href="#a"/><use x="408" y="396" xlink:href="#a"/><use x="444" y="396" xlink:href="#a"/><use x="12" y="408" xlink:href="#a"/><use x="36" y="408" xlink:href="#a"/><use x="48" y="408" xlink:href="#a"/><use x="60" y="408" xlink:href="#a"/><use x="84" y="408" xlink:href="#a"/><use x="156" y="408" xlink:href="#a"/><use x="168" y="408" xlink:href="#a"/><use x="216" y="408" xlink:href="#a"/><use x="228" y="408" xlink:href="#a"/><use x="240" y="408" xlink:href="#a"/><use x="288" y="408" xlink:href="#a"/><use x="300" y="408" xlink:href="#a"/><use x="312" y="408" xlink:href="#a"/><use x="336" y="408" xlink:href="#a"/><use x="348" y="408" xlink:href="#a"/><use x="360" y="408" xlink:href="#a"/><use x="384" y="408" xlink:href="#a"/><use x="396" y="408" xlink:href="#a"/><use x="432" y="408" xlink:href="#a"/><use x="444" y="408" xlink:href="#a"/><use x="12" y="420" xlink:href="#a"/><use x="36" y="420" xlink:href="#a"/><use x="48" y="420" xlink:href="#a"/><use x="60" y="420" xlink:href="#a"/><use x="84" y="420" xlink:href="#a"/><use x="108" y="420" xlink:href="#a"/><use x="120" y="420" xlink:href="#a"/><use x="168" y="420" xlink:href="#a"/><use x="192" y="420" xlink:href="#a"/><use x="252" y="420" xlink:href="#a"/><use x="264" y="420" xlink:href="#a"/><use x="276" y="420" xlink:href="#a"/><use x="288" y="420" xlink:href="#a"/><use x="300" y="420" xlink:href="#a"/><use x="312" y="420" xlink:href="#a"/><use x="324" y="420" xlink:href="#a"/><use x="384" y="420" xlink:href="#a"/><use x="396" y="420" xlink:href="#a"/><use x="408" y="420" xlink:href="#a"/><use x="420" y="420" xlink:href="#a"/><use x="444" y="420" xlink:href="#a"/><use x="12" y="432" xlink:href="#a"/><use x="84" y="432" xlink:href="#a"/><use x="144" y="432" xlink:href="#a"/><use x="156" y="432" xlink:href="#a"/><use x="168" y="432" xlink:href="#a"/><use x="192" y="432" xlink:href="#a"/><use x="204" y="432" xlink:href="#a"/><use x="228" y="432" xlink:href="#a"/><use x="264" y="432" xlink:href="#a"/><use x="300" y="432" xlink:href="#a"/><use x="312" y="432" xlink:href="#a"/><use x="360" y="432" xlink:href="#a"/><use x="372" y="432" xlink:href="#a"/><use x="408" y="432" xlink:href="#a"/><use x="432" y="432" xlink:href="#a"/><use x="12" y="444" xlink:href="#a"/><use x="24" y="444" xlink:href="#a"/><use x="36" y="444" xlink:href="#a"/><use x="48" y="444" xlink:href="#a"/><use x="60" y="444" xlink:href="#a"/><use x="72" y="444" xlink:href="#a"/><use x="84" y="444" xlink:href="#a"/><use x="132" y="444" xlink:href="#a"/><use x="156" y="444" xlink:href="#a"/><use x="180" y="444" xlink:href="#a"/><use x="192" y="444" xlink:href="#a"/><use x="216" y="444" xlink:href="#a"/><use x="228" y="444" xlink:href="#a"/><use x="252" y="444" xlink:href="#a"/><use x="264" y="444" xlink:href="#a"/><use x="276" y="444" xlink:href="#a"/><use x="288" y="444" xlink:href="#a"/><use x="300" y="444" xlink:href="#a"/><use x="312" y="444" xlink:href="#a"/><use x="336" y="444" xlink:href="#a"/><use x="348" y="444" xlink:href="#a"/><use x="360" y="444" xlink:href="#a"/><use x="372" y="444" xlink:href="#a"/><use x="408" y="444" xlink:href="#a"/><use x="432" y="444" xlink:href="#a"/><use x="444" y="444" xlink:href="#a"/></g></svg>
